<svg width="49" height="44" viewBox="0 0 49 44" fill="none" xmlns="http://www.w3.org/2000/svg">
<path d="M40.9668 39.3105C41.2393 39.3105 41.4351 39.5644 41.3682 39.8281L40.5195 43.1885C40.3499 43.8554 39.5737 44.1553 39.0029 43.7676C37.9542 43.0541 36.371 41.8077 34.9365 39.9775C34.7258 39.7087 34.9154 39.3107 35.2598 39.3105H40.9668ZM36.7461 0.202148C36.8437 -0.0458844 37.1826 -0.072071 37.3164 0.160156C37.8255 1.04946 38.7354 2.93706 38.7354 5.13965L39.2344 4.77734C39.3732 4.674 39.5691 4.70543 39.6719 4.83984L40.7617 6.2666C40.808 6.32865 40.8284 6.4117 40.8232 6.48926C40.7512 7.26014 40.5512 11.5041 44.2578 13.2051C44.3246 13.2361 44.3813 13.2883 44.4121 13.3555L48.9365 22.4551C48.9571 22.5015 48.9677 22.5481 48.9678 22.5996V26.4316C48.9677 27.0158 48.7211 27.5693 48.2842 27.957C46.5103 29.5392 41.8726 33.9286 41.5898 36.9688C41.5743 37.129 41.4398 37.2529 41.2754 37.2529H33.3008C33.2496 37.2529 33.1984 37.2425 33.1523 37.2168C32.6382 36.9377 29.9233 33.3599 29.373 29.8906C29.3319 29.6321 29.0081 29.534 28.8281 29.7305L27.0439 31.7158C26.8794 31.9019 26.6423 32.0049 26.3955 32.0049C26.1232 32.0047 25.892 31.8086 25.8457 31.54C25.64 30.3301 24.7243 27.165 20.8887 27.165C18.832 27.1651 15.6289 27.9617 12.6572 28.8613C12.6445 28.8653 9.36184 29.9017 6.93457 33.2041C6.8523 33.3178 6.71818 33.3857 6.57422 33.3857H4.56934C4.29177 33.3857 4.08099 33.1373 4.12207 32.8633C4.60539 29.7714 3.25294 26.6016 1.79785 23.6855C1.20661 22.5016 0.605404 21.3588 0.101562 20.2783C-0.00124553 20.0561 -0.0272558 19.8026 0.0292969 19.5596L0.950195 15.7031C1.03759 15.3309 1.31473 15.0308 1.67969 14.917C3.64894 14.2965 9.93735 12.0625 10.5029 8.7793C10.5133 8.71224 10.5495 8.65583 10.5957 8.60938L15.958 3.41309C16.0916 3.28395 16.3075 3.29896 16.4258 3.44336C16.9296 4.07927 18.3336 5.49648 20.4209 4.79883L19.7734 4.1416C19.6449 4.01752 19.6498 3.81061 19.7783 3.68652L22.2314 1.36035C22.288 1.3035 22.365 1.27246 22.4473 1.27246H29.9229C30.1901 1.27246 30.3392 1.58713 30.1699 1.79395L27.7686 4.72559C27.6503 4.87553 27.6814 5.09288 27.8408 5.19629C28.6944 5.75473 31.1883 7.39415 32.7256 8.40234C33.5072 8.91385 34.5604 8.59308 34.915 7.72461C35.311 6.75776 35.6814 5.25338 35.6865 3.01465C35.6865 2.97846 35.6917 2.93658 35.707 2.90039L36.7461 0.202148Z" fill="#0E8784"/>
</svg>
