<svg width="52" height="50" viewBox="0 0 52 50" fill="none" xmlns="http://www.w3.org/2000/svg">
<path d="M18.2949 19.1865L21.6221 15.8604L27.4424 19.1865L24.9482 22.5127L21.6221 29.166L27.4424 31.6611L29.9375 35.8184L32.4326 30.8291L29.1064 26.6709L32.4326 24.1768L35.7588 27.5029L39.085 24.1768L44.0752 29.166V32.4922L39.085 35.8184L44.9062 38.3135L44.0752 43.3027H37.4219L33.2637 49.9561L29.9375 43.3027L24.9482 39.9766L22.4531 44.1348L2.49512 34.1553L0 26.6709L2.78613 23.9121L0.832031 15.8604L7.48438 8.37598L18.2949 19.1865ZM49.0645 45.7979C49.5237 45.7979 49.8965 46.1706 49.8965 46.6299C49.8963 47.089 49.5236 47.4609 49.0645 47.4609H47.4014C46.9422 47.4609 46.5695 47.089 46.5693 46.6299C46.5693 46.1706 46.9421 45.7979 47.4014 45.7979H49.0645ZM50.7275 34.1553C51.1868 34.1553 51.5596 34.528 51.5596 34.9873C51.5595 35.4465 51.1868 35.8184 50.7275 35.8184H49.0645C48.6052 35.8184 48.2325 35.4465 48.2324 34.9873C48.2324 34.528 48.6052 34.1553 49.0645 34.1553H50.7275ZM39.917 15.0283L38.2539 20.0186L35.7588 21.6826L33.2637 20.0186V17.5234L30.7695 14.1973L29.4482 14.7617L26.126 12.3457L26.7305 9.62891L32.4326 9.20801L39.917 15.0283ZM22.4531 10.8711L18.1475 12.5967L12.4736 7.54395L15.8008 4.2168L22.4531 10.8711ZM28.2744 0.0605469V5.0498L23.2852 5.88184L20.79 3.38672L22.8311 0L28.2744 0.0605469Z" fill="#0E8784"/>
</svg>
