<svg width="71" height="72" viewBox="0 0 71 72" fill="none" xmlns="http://www.w3.org/2000/svg">
<path d="M8.07812 8.19434C20.5118 -4.42804 42.9295 -2.21876 58.0479 13.1035C65.3075 20.4656 69.8383 29.745 70.8057 39.2266C71.7951 48.8835 68.9817 57.6049 62.8936 63.7744C57.5997 69.1427 50.4106 72 42.3701 72C41.1589 72 39.9294 71.9322 38.6826 71.8018C29.3331 70.8206 20.1834 66.2262 12.9238 58.8643C-2.19002 43.5372 -4.36436 20.8124 8.07812 8.19434ZM8.85449 8.97754C10.5585 23.5349 17.8494 35.9546 32.5283 40.0361C38.3591 41.6561 43.7285 43.1728 48.6807 47.0068C54.3517 51.3989 57.6403 57.5282 62.1221 62.9912C60.4891 48.6586 53.384 36.3466 39.0244 32.1211C32.4838 30.1996 26.5292 28.5567 21.1201 24.0479C16.0437 19.8134 12.9901 14.0355 8.85449 8.97754Z" fill="#FDD6BA"/>
</svg>
