<svg width="72" height="72" viewBox="0 0 72 72" fill="none" xmlns="http://www.w3.org/2000/svg">
<path d="M34 72H11.2969C8.39112 71.9998 6 69.6711 6 66.8418V44H34V72ZM66 66.8418C66 69.6711 63.6089 71.9998 60.7031 72H38V44H66V66.8418ZM55.7305 0C64.0495 0.00308009 67 4.34682 67 8.06738C66.9999 12.3272 63.0475 17.7085 54.5762 21H66.7109C69.6123 21 72 23.37 72 26.25V33.75C72 36.63 69.6123 39 66.7109 39H38V23.9775C37.4423 23.991 36.8756 24 36.3008 24C36.1992 24 36.0986 23.9913 35.999 23.9785C35.8998 23.9912 35.7995 24 35.6982 24C35.1236 24 34.5575 23.991 34 23.9775V39H5.28906C2.38773 39 0 36.63 0 33.75V26.25C0 23.37 2.38773 21 5.28906 21H17.4238C8.95262 17.7081 5.00009 12.3258 5 8.06543C5 4.34436 7.95319 2.32412e-06 16.2725 0C27.0108 0 33.0879 7.62151 35.999 14.5996C38.9098 7.62183 44.9889 0.000216518 55.7305 0ZM16.2725 4.45117C13.0491 4.45117 9.60449 5.40074 9.60449 8.06543C9.60467 11.8548 16.4602 18.7593 32.8223 19.4863C31.4408 14.5545 27.2654 4.45117 16.2725 4.45117ZM55.7305 4.45312C44.7346 4.45341 40.5593 14.5563 39.1748 19.4844C47.8496 19.0927 53.32 16.9709 56.4697 15.1641C60.838 12.657 62.3944 9.85356 62.3945 8.06445C62.3945 5.40018 58.9537 4.45319 55.7305 4.45312Z" fill="#FDD6BA"/>
</svg>
