<svg width="72" height="72" viewBox="0 0 72 72" fill="none" xmlns="http://www.w3.org/2000/svg">
<path d="M16.6152 48.5C20.0508 48.5001 22.8467 51.3038 22.8467 54.75C22.8467 58.1962 20.0508 60.9999 16.6152 61C13.1798 60.9998 10.3848 58.1961 10.3848 54.75C10.3848 51.3039 13.1798 48.5002 16.6152 48.5ZM55.3848 48.5C58.8202 48.5002 61.6162 51.3039 61.6162 54.75C61.6162 58.1961 58.8202 60.9998 55.3848 61C51.9493 60.9998 49.1543 58.1961 49.1543 54.75C49.1543 51.3039 51.9493 48.5002 55.3848 48.5ZM14.5156 56.8564H18.7158V52.6436H14.5156V56.8564ZM53.2852 56.8564H57.4854V52.6436H53.2852V56.8564ZM48.4619 46.3965C46.2978 48.2608 44.9001 50.9957 44.8105 54.0557H27.0498C26.8845 48.4091 22.2629 43.8652 16.6016 43.8652C10.9402 43.8653 6.31865 48.409 6.15332 54.0557H0V40.1201H11.7695C13.2729 40.1201 14.4958 38.8918 14.4961 37.3818C14.4961 35.8717 13.2731 34.6426 11.7695 34.6426H8.34473V30.4131H26.2656C27.7692 30.4131 28.9931 29.1849 28.9932 27.6748C28.9932 26.1646 27.7692 24.9355 26.2656 24.9355H0V20.707H16.6016C18.1052 20.707 19.3281 19.478 19.3281 17.9678C19.328 16.5089 17.9755 15.2295 16.4336 15.2295H13.127V11H48.4619V46.3965ZM72 54.0557H65.7832C65.6162 48.4001 60.9478 43.8497 55.2285 43.8496C54.3269 43.8496 53.4512 43.9631 52.6152 44.1758V34.6113H72V54.0557ZM4.1543 34.6113H0V30.4443H4.1543V34.6113ZM70.6152 30.4443H52.6152V15.8613H61.0625L70.6152 30.4443ZM9 15.167H4.8457V11H9V15.167Z" fill="#FDD6BA"/>
</svg>
