<svg width="41" height="50" viewBox="0 0 41 50" fill="none" xmlns="http://www.w3.org/2000/svg">
<path d="M19.8262 0.0322266C21.6539 -0.253885 21.071 1.44911 20.2793 2.26855C19.3598 3.23237 17.873 3.65986 17.3369 5.7959C19.698 5.7959 21.7375 5.84334 23.7764 5.78223C26.3958 5.70447 26.8399 6.65694 25.3955 8.77637C24.6844 9.82636 24.2786 11.0958 23.498 12.0791C21.9843 13.9734 22.018 15.2681 24.501 16.1514C25.126 16.3736 25.9315 16.9293 26.0898 17.4932C27.6787 23.1236 33.9373 25.8041 34.9736 31.6982C35.1375 32.6204 34.9652 33.1015 36.2373 32.9932C38.0706 32.8209 40.2399 32.7988 40.751 35.1377C41.2426 37.3682 39.651 38.788 37.9482 39.9658C37.6152 40.1936 37.3957 40.5736 37.0654 40.9678C37.3793 42.3371 39.437 41.0433 39.4512 42.3984C39.4623 43.5262 38.2541 44.0512 37.418 44.3096C33.1541 45.6346 28.6623 46.085 24.29 45.9961C20.2624 45.9073 17.1013 48.1926 13.3682 48.7344C12.3071 48.8927 11.3342 49.4151 9.60645 48.7207C13.6064 47.2679 14.2237 42.0964 20.0098 42.3408C18.2184 41.5965 17.4682 41.2569 16.6934 40.9736C14.3629 40.132 14.0513 38.496 15.79 36.6016C16.7706 35.5377 17.4485 34.3957 15.2266 33.9346C13.1239 33.5013 15.5037 32.2656 14.8125 31.3184C14.4403 30.8072 15.6626 30.6631 16.3682 30.752C18.457 31.0214 21.4097 31.3818 20.5986 28.3291C20.0764 26.3735 19.7702 22.4575 15.9092 22.9658C12.2541 23.4462 11.1067 22.54 13.3926 19.2236C12.0452 18.6215 9.20131 21.7814 9.8457 17.5596C9.87034 17.3847 9.52708 16.9661 9.45703 16.9844C8.61537 17.251 7.71539 19.3151 6.99316 17.4346C6.28226 15.5848 9.43184 16.4789 9.50684 14.2373C9.35873 13.7601 6.67389 14.5289 7.62891 13.21C9.82335 10.1822 7.74579 9.09023 5.86523 7.61523C5.52646 7.3514 5.86822 6.89058 5.90723 6.46289C5.90723 6.45456 5.90137 6.43997 5.90137 6.43164C5.90964 6.30129 5.89578 6.1681 5.81543 6.04883C5.72654 5.98772 5.65124 5.95662 5.55957 5.89551H5.56836C5.57672 5.88172 5.5904 5.86492 5.59863 5.8457C5.62081 5.83741 5.64581 5.83155 5.66797 5.82324C5.76515 5.89266 5.7676 5.96831 5.82031 6.04883C8.28403 7.59594 9.6621 6.76543 10.626 4.60742C10.7593 4.29631 10.8877 3.9599 11.0127 3.60156C12.5155 -0.812244 16.7012 0.529383 19.8262 0.0322266ZM6.97363 20.0596C9.69853 20.2096 9.82946 22.7517 10.9072 24.1045C10.8155 25.9375 9.70708 26.9737 8.51562 26.9795C6.06007 27.01 3.58424 26.5847 1.14258 26.1875C0.581638 26.0956 -0.0569856 25.507 0.00390625 24.6602C0.126128 23.1046 4.86808 19.9346 6.97363 20.0596ZM3.33203 7.64355C3.54854 7.98506 3.6623 8.27959 3.24023 8.42676C3.15971 8.13243 3.22377 7.88236 3.33203 7.64355ZM7.85645 0.878906C8.6064 3.41486 6.3153 4.25685 5.5957 5.84277C5.1985 5.94277 4.79857 6.05152 4.40137 6.1543C4.04859 6.68207 3.55718 7.138 3.33496 7.64355C2.87107 6.91855 1.87096 5.99297 3.9043 5.79297C3.71826 2.97373 5.23167 1.57892 7.85645 0.878906Z" fill="#0E8784"/>
</svg>
